<svg width="145" height="145" viewBox="0 0 145 145" fill="none" xmlns="http://www.w3.org/2000/svg">
<path d="M31.7188 0C32.9205 0 34.0731 0.477398 34.9228 1.32717C35.7726 2.17695 36.25 3.32949 36.25 4.53125V9.0625H108.75V4.53125C108.75 3.32949 109.227 2.17695 110.077 1.32717C110.927 0.477398 112.079 0 113.281 0C114.483 0 115.636 0.477398 116.485 1.32717C117.335 2.17695 117.812 3.32949 117.812 4.53125V9.0625H126.875C131.682 9.0625 136.292 10.9721 139.691 14.3712C143.09 17.7703 145 22.3805 145 27.1875V126.875C145 131.682 143.09 136.292 139.691 139.691C136.292 143.09 131.682 145 126.875 145H18.125C13.318 145 8.70779 143.09 5.30869 139.691C1.90959 136.292 0 131.682 0 126.875V27.1875C0 22.3805 1.90959 17.7703 5.30869 14.3712C8.70779 10.9721 13.318 9.0625 18.125 9.0625H27.1875V4.53125C27.1875 3.32949 27.6649 2.17695 28.5147 1.32717C29.3644 0.477398 30.517 0 31.7188 0ZM9.0625 36.25V126.875C9.0625 129.279 10.0173 131.584 11.7168 133.283C13.4164 134.983 15.7215 135.938 18.125 135.938H126.875C129.279 135.938 131.584 134.983 133.283 133.283C134.983 131.584 135.938 129.279 135.938 126.875V36.25H9.0625Z" fill="black"/>
</svg>
