<svg width="145" height="145" viewBox="0 0 145 145" fill="none" xmlns="http://www.w3.org/2000/svg">
<path fill-rule="evenodd" clip-rule="evenodd" d="M143.342 1.02356C143.86 1.44891 144.278 1.98417 144.565 2.59069C144.852 3.1972 145 3.85984 145 4.53074V131.406C144.999 132.453 144.636 133.467 143.972 134.277C143.308 135.087 142.384 135.641 141.357 135.846L96.0444 144.909C95.458 145.026 94.8545 145.026 94.2681 144.909L49.8438 136.028L5.41937 144.909C4.76224 145.04 4.08415 145.024 3.43397 144.862C2.78378 144.7 2.17768 144.395 1.65934 143.97C1.14099 143.546 0.723309 143.011 0.436375 142.406C0.149442 141.8 0.000404665 141.138 0 140.468L0 13.5932C0.0006324 12.5461 0.363915 11.5315 1.02808 10.722C1.69225 9.9124 2.6163 9.35786 3.64313 9.15262L48.9556 0.0901205C49.5419 -0.0270643 50.1456 -0.0270643 50.7319 0.0901205L95.1562 8.97137L139.581 0.0901205C140.238 -0.0420486 140.916 -0.0268824 141.566 0.134527C142.216 0.295936 142.823 0.59957 143.342 1.02356V1.02356ZM90.625 17.3089L54.375 10.0589V127.69L90.625 134.94V17.3089ZM99.6875 134.94L135.938 127.69V10.0589L99.6875 17.3089V134.94ZM45.3125 127.69V10.0589L9.0625 17.3089V134.94L45.3125 127.69Z" fill="black"/>
</svg>
